{
  "accessors": [
    {
      "bufferView": 2,
      "componentType": 5126,
      "count": 47,
      "max": [
        1.4914920330047607,
        0.0,
        1.5005820989608765
      ],
      "min": [
        -1.4914920330047607,
        0.0,
        -1.482401967048645
      ],
      "type": "VEC3"
    },
    {
      "bufferView": 2,
      "byteOffset": 564,
      "componentType": 5126,
      "count": 47,
      "max": [
        0.0,
        -1.0,
        0.0
      ],
      "min": [
        0.0,
        -1.0,
        0.0
      ],
      "type": "VEC3"
    },
    {
      "bufferView": 1,
      "componentType": 5126,
      "count": 47,
      "max": [
        0.9223445653915405,
        0.3871884346008301
      ],
      "min": [
        0.6089053750038147,
        0.07374918460845947
      ],
      "type": "VEC2"
    },
    {
      "bufferView": 0,
      "componentType": 5125,
      "count": 48,
      "type": "SCALAR"
    },
    {
      "bufferView": 2,
      "byteOffset": 1128,
      "componentType": 5126,
      "count": 1572,
      "max": [
        1.0,
        1.4708609580993652,
        1.44362473487854
      ],
      "min": [
        -1.387560248374939,
        0.016762204468250275,
        -0.5056331157684326
      ],
      "type": "VEC3"
    },
    {
      "bufferView": 2,
      "byteOffset": 19992,
      "componentType": 5126,
      "count": 1572,
      "max": [
        1.0,
        1.0,
        1.0
      ],
      "min": [
        -1.0,
        -1.0,
        -1.0
      ],
      "type": "VEC3"
    },
    {
      "bufferView": 1,
      "byteOffset": 376,
      "componentType": 5126,
      "count": 1572,
      "max": [
        0.9992516040802002,
        0.9756597280502319
      ],
      "min": [
        0.0041574835777282715,
        0.003392055630683899
      ],
      "type": "VEC2"
    },
    {
      "bufferView": 0,
      "byteOffset": 192,
      "componentType": 5125,
      "count": 2703,
      "type": "SCALAR"
    }
  ],
  "asset": {
    "extras": {
      "author": "SeanNicolas (https://sketchfab.com/SeanNicolas)",
      "license": "CC-BY-4.0 (http://creativecommons.org/licenses/by/4.0/)",
      "source": "https://sketchfab.com/3d-models/computer-desk-ec8bbbd55c4d428a8a20ddfe7305d836",
      "title": "Computer + Desk"
    },
    "generator": "Sketchfab-12.66.0",
    "version": "2.0"
  },
  "bufferViews": [
    {
      "buffer": 0,
      "byteLength": 11004,
      "name": "floatBufferViews",
      "target": 34963
    },
    {
      "buffer": 0,
      "byteLength": 12952,
      "byteOffset": 11004,
      "byteStride": 8,
      "name": "floatBufferViews",
      "target": 34962
    },
    {
      "buffer": 0,
      "byteLength": 38856,
      "byteOffset": 23956,
      "byteStride": 12,
      "name": "floatBufferViews",
      "target": 34962
    }
  ],
  "buffers": [
    {
      "byteLength": 62812,
      "uri": "scene.bin"
    }
  ],
  "images": [
    {
      "uri": "textures/Material.016_baseColor.png"
    },
    {
      "uri": "textures/Material.016_emissive.png"
    }
  ],
  "materials": [
    {
      "alphaMode": "BLEND",
      "doubleSided": true,
      "emissiveFactor": [
        1.0,
        1.0,
        1.0
      ],
      "emissiveTexture": {
        "index": 1
      },
      "name": "Material.016",
      "pbrMetallicRoughness": {
        "baseColorFactor": [
          0.3644547544,
          0.3644547544,
          0.3644547544,
          1.0
        ],
        "baseColorTexture": {
          "index": 0
        },
        "metallicFactor": 0.0
      }
    }
  ],
  "meshes": [
    {
      "name": "Object_0",
      "primitives": [
        {
          "attributes": {
            "NORMAL": 1,
            "POSITION": 0,
            "TEXCOORD_0": 2
          },
          "indices": 3,
          "material": 0,
          "mode": 4
        }
      ]
    },
    {
      "name": "Object_1",
      "primitives": [
        {
          "attributes": {
            "NORMAL": 5,
            "POSITION": 4,
            "TEXCOORD_0": 6
          },
          "indices": 7,
          "material": 0,
          "mode": 4
        }
      ]
    }
  ],
  "nodes": [
    {
      "children": [
        1
      ],
      "matrix": [
        1.0,
        0.0,
        0.0,
        0.0,
        0.0,
        2.220446049250313e-16,
        -1.0,
        0.0,
        0.0,
        1.0,
        2.220446049250313e-16,
        0.0,
        0.0,
        0.0,
        0.0,
        1.0
      ],
      "name": "Sketchfab_model"
    },
    {
      "children": [
        2
      ],
      "name": "root"
    },
    {
      "children": [
        3,
        5
      ],
      "matrix": [
        1.0,
        0.0,
        0.0,
        0.0,
        0.0,
        2.220446049250313e-16,
        1.0,
        0.0,
        0.0,
        -1.0,
        2.220446049250313e-16,
        0.0,
        0.0,
        0.0,
        0.0,
        1.0
      ],
      "name": "GLTF_SceneRootNode"
    },
    {
      "children": [
        4
      ],
      "matrix": [
        -1.2520688772200872,
        4.079758381448961e-07,
        0.0,
        0.0,
        -4.079758381448961e-07,
        -1.2520688772200872,
        -0.0,
        0.0,
        0.0,
        0.0,
        1.2520688772201538,
        0.0,
        0.0621800422668457,
        0.0,
        -0.6209573745727539,
        1.0
      ],
      "name": "Plane.001_4"
    },
    {
      "mesh": 0,
      "name": "Object_4"
    },
    {
      "children": [
        6
      ],
      "matrix": [
        1.0,
        0.0,
        0.0,
        0.0,
        0.0,
        1.0,
        0.0,
        0.0,
        0.0,
        0.0,
        1.0,
        0.0,
        -0.0004775524139404297,
        1.9222497940063477e-05,
        -0.78693687915802,
        1.0
      ],
      "name": "Cube.001_5"
    },
    {
      "mesh": 1,
      "name": "Object_6"
    }
  ],
  "samplers": [
    {
      "magFilter": 9729,
      "minFilter": 9987,
      "wrapS": 10497,
      "wrapT": 10497
    }
  ],
  "scene": 0,
  "scenes": [
    {
      "name": "Sketchfab_Scene",
      "nodes": [
        0
      ]
    }
  ],
  "textures": [
    {
      "sampler": 0,
      "source": 0
    },
    {
      "sampler": 0,
      "source": 1
    }
  ]
}
